<svg xmlns="http://www.w3.org/2000/svg" version="1.1" xmlns:xlink="http://www.w3.org/1999/xlink" xmlns:svgjs="http://svgjs.dev/svgjs" width="1500" height="1500" viewBox="0 0 1500 1500"><rect width="1500" height="1500" fill="#000000"></rect><g transform="matrix(0.6666666666666666,0,0,0.6666666666666666,250.30666784373796,366.97705802968966)"><svg viewBox="0 0 322 247" data-background-color="#4a5d5e" preserveAspectRatio="xMidYMid meet" height="1150" width="1500" xmlns="http://www.w3.org/2000/svg" xmlns:xlink="http://www.w3.org/1999/xlink"><g id="tight-bounds" transform="matrix(1,0,0,1,-0.09874704568360926,-0.09999999999999432)"><svg viewBox="0 0 322.1974940913672 247.2" height="247.2" width="322.1974940913672"><g><svg viewBox="0 0 354.8844105187835 272.2784251554916" height="247.2" width="322.1974940913672"><g><svg viewBox="0 0 354.8844105187835 272.2784251554916" height="272.2784251554916" width="354.8844105187835"><g id="textblocktransform"><svg viewBox="0 0 354.8844105187835 272.2784251554916" height="272.2784251554916" width="354.8844105187835" id="textblock"><g><svg viewBox="0 0 354.8844105187835 245.672304" height="245.672304" width="354.8844105187835"><g transform="matrix(1,0,0,1,0,0)"><svg width="354.8844105187835" viewBox="0.949999999999994 -37.95 242.25 150.45000000000005" height="245.672304" data-palette-color="#96a684"><svg></svg><svg></svg><svg></svg><g class="wordmark-text-0" data-fill-palette-color="primary" id="text-0"><path d="M38-36l-1.4 7.8h-12.3l-4.95 28.2h-9.05l4.95-28.2h-12.35l1.4-7.8zM61.85-6.4v0c0.767 0 1.45-0.167 2.05-0.5v0l-0.25 5.65c-1.567 1.3-3.35 1.95-5.35 1.95v0c-4.533 0-6.8-1.9-6.8-5.7v0c0-0.667 0.067-1.383 0.2-2.15v0l1.1-6.15c0.1-0.6 0.15-1.2 0.15-1.8v0c0-1.6-0.84-2.4-2.52-2.4-1.687 0-2.997 0.567-3.93 1.7v0l-2.8 15.8h-8.5l6.7-37.95h8.5l-2.85 16.15c1.833-1.967 4.133-2.95 6.9-2.95v0c3.367 0 5.55 0.75 6.55 2.25v0c0.7 1 1.05 2.117 1.05 3.35 0 1.233-0.1 2.367-0.3 3.4v0l-1.35 7.45c-0.033 0.2-0.05 0.383-0.05 0.55v0c0 0.9 0.5 1.35 1.5 1.35zM76.95 0.7v0c-6.933 0-10.4-2.4-10.4-7.2v0c0-0.667 0.067-1.383 0.2-2.15v0l1.05-6.2c0.567-3.2 2.04-5.66 4.42-7.38 2.387-1.713 5.547-2.57 9.48-2.57v0c6.7 0 10.05 2.533 10.05 7.6v0c0 0.733-0.067 1.533-0.2 2.4v0l-0.6 3.55h-15.25l-0.2 1.15c-0.067 0.4-0.1 0.767-0.1 1.1v0c0 1.833 1.083 2.75 3.25 2.75v0c0.8 0 1.483-0.25 2.05-0.75 0.567-0.5 0.9-1.083 1-1.75v0l8.3 0.1c-1.1 6.233-5.45 9.35-13.05 9.35zM76.2-14.3h6.75c0.133-0.567 0.2-1.093 0.2-1.58 0-0.48-0.217-0.97-0.65-1.47-0.433-0.5-1.127-0.75-2.08-0.75-0.947 0-1.81 0.317-2.59 0.95-0.787 0.633-1.33 1.583-1.63 2.85z" fill="#ffffff" fill-rule="nonzero" stroke="none" stroke-width="1" stroke-linecap="butt" stroke-linejoin="miter" stroke-miterlimit="10" stroke-dasharray="" stroke-dashoffset="0" font-family="none" font-weight="none" font-size="none" text-anchor="none" style="mix-blend-mode: normal" data-fill-palette-color="primary" opacity="1"></path><path d="M26.35 19.9h9.5l-11.45 18.15 5.1 17.85h-9.5l-3.75-13.2h-3.95l-2.35 13.2h-9l6.35-36h9l-2.65 15h3.2zM44 56.6v0c-6.933 0-10.4-2.4-10.4-7.2v0c0-0.667 0.067-1.383 0.2-2.15v0l1.05-6.2c0.567-3.2 2.043-5.66 4.43-7.38 2.38-1.713 5.537-2.57 9.47-2.57v0c6.7 0 10.05 2.533 10.05 7.6v0c0 0.733-0.067 1.533-0.2 2.4v0l-0.6 3.55h-15.25l-0.2 1.15c-0.067 0.4-0.1 0.767-0.1 1.1v0c0 1.833 1.083 2.75 3.25 2.75v0c0.8 0 1.483-0.25 2.05-0.75 0.567-0.5 0.9-1.083 1-1.75v0l8.3 0.1c-1.1 6.233-5.45 9.35-13.05 9.35zM43.25 41.6h6.75c0.133-0.567 0.2-1.093 0.2-1.58 0-0.48-0.217-0.97-0.65-1.47-0.433-0.5-1.123-0.75-2.07-0.75-0.953 0-1.82 0.317-2.6 0.95-0.787 0.633-1.33 1.583-1.63 2.85zM72.2 56.6v0c-3.867 0-6.65-0.867-8.35-2.6v0c-1.267-1.267-1.9-2.967-1.9-5.1v0c0-0.7 0.067-1.45 0.2-2.25v0l3.4-19.35 9.15-3.8-1.45 8.35h13.8l-1.25 7.05h-13.8l-1 5.65c-0.133 0.633-0.2 1.2-0.2 1.7v0c0 2.1 1 3.15 3 3.15v0c1.067 0 1.96-0.45 2.68-1.35 0.713-0.9 1.203-2.1 1.47-3.6v0h8.3c-1.4 8.1-6.083 12.15-14.05 12.15zM103.9 31.15v0c3.6 0 6.317 0.783 8.15 2.35v0c1.433 1.233 2.15 2.95 2.15 5.15v0c0 0.733-0.083 1.533-0.25 2.4v0l-1.05 5.85c-0.633 3.533-2.107 6.033-4.42 7.5-2.32 1.467-5.413 2.2-9.28 2.2-3.867 0-6.7-0.733-8.5-2.2v0c-1.333-1.1-2-2.75-2-4.95v0c0-0.767 0.083-1.617 0.25-2.55v0l1.05-5.85c1.167-6.6 5.8-9.9 13.9-9.9zM104.6 45.8l0.65-3.75c0.067-0.333 0.1-0.76 0.1-1.28 0-0.513-0.217-1.087-0.65-1.72-0.433-0.633-1.19-0.95-2.27-0.95-1.087 0-1.997 0.357-2.73 1.07-0.733 0.72-1.2 1.68-1.4 2.88v0l-0.65 3.75c-0.067 0.333-0.1 0.757-0.1 1.27 0 0.52 0.217 1.08 0.65 1.68 0.433 0.6 1.193 0.9 2.28 0.9 1.08 0 1.987-0.377 2.72-1.13 0.733-0.747 1.2-1.653 1.4-2.72zM139.15 56.7c-0.733 4.233-2.407 7.583-5.02 10.05-2.62 2.467-5.613 3.7-8.98 3.7-3.367 0-5.79-0.617-7.27-1.85-1.487-1.233-2.23-2.85-2.23-4.85v0c0-2.933 1.867-5.483 5.6-7.65v0c-2.833-0.9-4.25-3.05-4.25-6.45v0c0-0.833 0.083-1.75 0.25-2.75v0l1-5.85c0.533-3 1.767-5.393 3.7-7.18 1.933-1.78 4.443-2.67 7.53-2.67 3.08 0 5.187 0.75 6.32 2.25v0l0.3-1.6h7.45zM126.6 42.05l-0.65 3.75c-0.067 0.3-0.1 0.717-0.1 1.25 0 0.533 0.25 1.057 0.75 1.57 0.5 0.52 1.343 0.78 2.53 0.78 1.18 0 2.203-0.467 3.07-1.4v0l1.5-8.4c-0.467-0.833-1.35-1.25-2.65-1.25-1.3 0-2.317 0.333-3.05 1-0.733 0.667-1.2 1.567-1.4 2.7zM126.3 63.3v0c2.167 0 3.583-1.967 4.25-5.9v0l0.5-2.9c-4.633 2.167-6.95 4.35-6.95 6.55v0c0 0.667 0.193 1.21 0.58 1.63 0.38 0.413 0.92 0.62 1.62 0.62zM155.1 56.6v0c-6.933 0-10.4-2.4-10.4-7.2v0c0-0.667 0.067-1.383 0.2-2.15v0l1.05-6.2c0.567-3.2 2.043-5.66 4.43-7.38 2.38-1.713 5.537-2.57 9.47-2.57v0c6.7 0 10.05 2.533 10.05 7.6v0c0 0.733-0.067 1.533-0.2 2.4v0l-0.6 3.55h-15.25l-0.2 1.15c-0.067 0.4-0.1 0.767-0.1 1.1v0c0 1.833 1.083 2.75 3.25 2.75v0c0.8 0 1.483-0.25 2.05-0.75 0.567-0.5 0.9-1.083 1-1.75v0l8.3 0.1c-1.1 6.233-5.45 9.35-13.05 9.35zM154.35 41.6h6.75c0.133-0.567 0.2-1.093 0.2-1.58 0-0.48-0.217-0.97-0.65-1.47-0.433-0.5-1.123-0.75-2.07-0.75-0.953 0-1.823 0.317-2.61 0.95-0.78 0.633-1.32 1.583-1.62 2.85zM188.7 40.55v0c0-1.433-0.69-2.15-2.07-2.15-1.387 0-2.53 0.517-3.43 1.55v0l-2.8 15.95h-8.5l4.25-24.05h7.9l-0.55 2.95c1.967-2.433 4.45-3.65 7.45-3.65 3 0 4.95 0.733 5.85 2.2v0c0.567 0.933 0.85 2 0.85 3.2 0 1.2-0.083 2.317-0.25 3.35v0l-1.35 7.7c-0.033 0.2-0.05 0.383-0.05 0.55v0c0 0.9 0.5 1.35 1.5 1.35v0c0.767 0 1.45-0.167 2.05-0.5v0l-0.25 5.65c-1.567 1.3-3.35 1.95-5.35 1.95v0c-4.533 0-6.8-1.9-6.8-5.7v0c0-0.667 0.067-1.383 0.2-2.15v0l1.2-6.65c0.1-0.6 0.15-1.117 0.15-1.55zM213.05 49.5v0c0.767 0 1.45-0.167 2.05-0.5v0l-0.25 5.65c-1.567 1.3-3.35 1.95-5.35 1.95v0c-3.033 0-5-0.7-5.9-2.1v0c-0.6-0.933-0.9-1.927-0.9-2.98 0-1.047 0.067-1.97 0.2-2.77v0l3-16.9h8.5l-2.8 15.75c-0.033 0.2-0.05 0.383-0.05 0.55v0c0 0.9 0.5 1.35 1.5 1.35zM206.9 23.7v0c0-2.133 0.477-3.693 1.43-4.68 0.947-0.98 2.42-1.47 4.42-1.47v0c2.8 0 4.2 1.233 4.2 3.7v0c0 2.1-0.473 3.633-1.42 4.6-0.953 0.967-2.447 1.45-4.48 1.45v0c-2.767 0-4.15-1.2-4.15-3.6zM228.25 56.6v0c-6.933 0-10.4-2.4-10.4-7.2v0c0-0.667 0.067-1.383 0.2-2.15v0l1.05-6.2c0.533-3.2 1.993-5.65 4.38-7.35 2.38-1.7 5.403-2.567 9.07-2.6v0c7.1 0 10.65 2.467 10.65 7.4v0c0 1.067-0.123 2.023-0.37 2.87-0.253 0.853-0.513 1.43-0.78 1.73v0l-0.4 0.5h-8.5c0.833-0.733 1.25-1.6 1.25-2.6v0c0-1.8-0.9-2.7-2.7-2.7v0c-1.067 0-1.983 0.317-2.75 0.95-0.767 0.633-1.267 1.6-1.5 2.9v0l-0.65 3.65c-0.067 0.333-0.1 0.65-0.1 0.95v0c0 1.767 1.1 2.65 3.3 2.65v0c0.733 0 1.393-0.233 1.98-0.7 0.58-0.467 0.92-0.983 1.02-1.55v0l8.3 0.1c-1.1 6.233-5.45 9.35-13.05 9.35z" fill="#ffffff" fill-rule="nonzero" stroke="none" stroke-width="1" stroke-linecap="butt" stroke-linejoin="miter" stroke-miterlimit="10" stroke-dasharray="" stroke-dashoffset="0" font-family="none" font-weight="none" font-size="none" text-anchor="none" style="mix-blend-mode: normal" data-fill-palette-color="secondary" opacity="1"></path><path d="M7.3 75.8h14c4.367 0 7.483 1.1 9.35 3.3v0c1.367 1.667 2.05 3.75 2.05 6.25v0c0 0.9-0.083 1.85-0.25 2.85v0l-1.95 11.15c-0.667 3.767-2.3 6.783-4.9 9.05-2.6 2.267-5.967 3.4-10.1 3.4v0h-14.55zM18.15 83.6v0h-3.25l-3.55 20.4h4.75c1.567 0 2.793-0.427 3.68-1.28 0.88-0.847 1.487-2.237 1.82-4.17v0l1.45-8.2c0.133-0.733 0.2-1.4 0.2-2v0c0-3.167-1.7-4.75-5.1-4.75zM45.1 105.4v0c0.767 0 1.45-0.167 2.05-0.5v0l-0.25 5.65c-1.567 1.3-3.35 1.95-5.35 1.95v0c-3.033 0-5-0.7-5.9-2.1v0c-0.6-0.933-0.9-1.927-0.9-2.98 0-1.047 0.067-1.97 0.2-2.77v0l3-16.9h8.5l-2.8 15.75c-0.033 0.2-0.05 0.383-0.05 0.55v0c0 0.9 0.5 1.35 1.5 1.35zM38.95 79.6v0c0-2.133 0.477-3.693 1.43-4.68 0.947-0.98 2.42-1.47 4.42-1.47v0c2.8 0 4.2 1.233 4.2 3.7v0c0 2.1-0.473 3.633-1.42 4.6-0.953 0.967-2.447 1.45-4.48 1.45v0c-2.767 0-4.15-1.2-4.15-3.6zM60.3 112.5v0c-6.933 0-10.4-2.4-10.4-7.2v0c0-0.667 0.067-1.383 0.2-2.15v0l1.05-6.2c0.567-3.2 2.043-5.66 4.43-7.38 2.38-1.713 5.537-2.57 9.47-2.57v0c6.7 0 10.05 2.533 10.05 7.6v0c0 0.733-0.067 1.533-0.2 2.4v0l-0.6 3.55h-15.25l-0.2 1.15c-0.067 0.4-0.1 0.767-0.1 1.1v0c0 1.833 1.083 2.75 3.25 2.75v0c0.8 0 1.483-0.25 2.05-0.75 0.567-0.5 0.9-1.083 1-1.75v0l8.3 0.1c-1.1 6.233-5.45 9.35-13.05 9.35zM59.55 97.5h6.75c0.133-0.567 0.2-1.093 0.2-1.58 0-0.48-0.217-0.97-0.65-1.47-0.433-0.5-1.123-0.75-2.07-0.75-0.953 0-1.82 0.317-2.6 0.95-0.787 0.633-1.33 1.583-1.63 2.85zM88.5 112.5v0c-3.867 0-6.65-0.867-8.35-2.6v0c-1.267-1.267-1.9-2.967-1.9-5.1v0c0-0.7 0.067-1.45 0.2-2.25v0l3.4-19.35 9.15-3.8-1.45 8.35h13.8l-1.25 7.05h-13.8l-1 5.65c-0.133 0.633-0.2 1.2-0.2 1.7v0c0 2.1 1 3.15 3 3.15v0c1.067 0 1.96-0.45 2.68-1.35 0.713-0.9 1.203-2.1 1.47-3.6v0h8.3c-1.4 8.1-6.083 12.15-14.05 12.15z" fill="#ffffff" fill-rule="nonzero" stroke="none" stroke-width="1" stroke-linecap="butt" stroke-linejoin="miter" stroke-miterlimit="10" stroke-dasharray="" stroke-dashoffset="0" font-family="none" font-weight="none" font-size="none" text-anchor="none" style="mix-blend-mode: normal" data-fill-palette-color="accent" opacity="1"></path></g></svg></g></svg></g><g transform="matrix(1,0,0,1,0,263.9672295395862)"><svg viewBox="0 0 208.35263741557776 8.311195615905454" height="8.311195615905454" width="208.35263741557776"><g transform="matrix(1,0,0,1,0,0)"><svg width="208.35263741557776" viewBox="1.1 -32.3 818.41 32.65" height="8.311195615905454" data-palette-color="#d2dbc8"><path d="M23.15-32.05L23.45-31.65 23.15-28.55 17.55-28.85 14.3-28.85 14.15-10 14.3 0 10.25 0 10.55-9.65 10.3-28.85 7.05-28.85 1.35-28.55 1.1-28.95 1.4-32.05 23.15-32.05ZM49.85-24.9L49.7-7.8 49.8 0 46.1 0 46.25-7.5 46.2-10.9 32.65-10.85 32.6-7.8 32.7 0 29 0 29.15-7.5 29-24.9 32.75-24.9 32.65-14.2 39.4-14.15 46.2-14.2 46.1-24.9 49.85-24.9ZM67.34-3L74-3.2 74.3-2.9 73.95 0 58.8 0 58.95-7.5 58.8-24.9 74.05-24.9 74.3-24.6 74-21.7 67.7-21.9 62.5-21.85 62.45-14.3 67.4-14.25 71.75-14.4 72-14.05 71.7-11.1 67.09-11.25 62.45-11.2 62.4-7.8 62.45-3.05 67.34-3ZM104.64-3.35L104.94-3 104.59 0 88.79 0 89.04-9.65 88.79-32.05 92.89-32.05 92.64-10 92.79-3.35 104.64-3.35ZM117.64-25.2Q123.09-25.2 126.01-22 128.94-18.8 128.94-12.95L128.94-12.95Q128.94-6.6 125.81-3.13 122.69 0.35 116.89 0.35L116.89 0.35Q111.49 0.35 108.54-2.93 105.59-6.2 105.59-12.25L105.59-12.25Q105.59-18.45 108.74-21.83 111.89-25.2 117.64-25.2L117.64-25.2ZM117.29-22.05Q113.34-22.05 111.41-19.8 109.49-17.55 109.49-12.7L109.49-12.7Q109.49-7.5 111.39-5.15 113.29-2.8 117.19-2.8L117.19-2.8Q121.19-2.8 123.14-5.1 125.09-7.4 125.09-12.3L125.09-12.3Q125.09-17.35 123.16-19.7 121.24-22.05 117.29-22.05L117.29-22.05ZM168.63-24.9L159.34 0 155.34 0 150.44-13.6 150.13-13.6 144.99 0 140.99 0 132.84-24.9 136.59-24.9 137.03-22.25 143.13-4.15 143.38-4.15 148.84-18.7 146.78-24.9 150.69-24.9 151.24-21.95 157.34-4.15 157.63-4.15 164.38-22.05 164.99-24.9 168.63-24.9ZM193.93-32.3Q198.98-32.3 202.68-29.9L202.68-29.9 201.88-26.25 201.43-26.15Q198.08-28.95 193.73-28.95L193.73-28.95Q188.98-28.95 186.43-25.68 183.88-22.4 183.88-16.1L183.88-16.1Q183.88-9.75 186.43-6.4 188.98-3.05 193.63-3.05L193.63-3.05Q195.83-3.05 198.01-3.85 200.18-4.65 201.98-6.1L201.98-6.1 202.48-5.85 202.13-2.05Q197.78 0.35 193.28 0.35L193.28 0.35Q186.83 0.35 183.28-3.83 179.73-8 179.73-15.75L179.73-15.75Q179.73-23.7 183.43-28 187.13-32.3 193.93-32.3L193.93-32.3ZM218.98-24.9L227.73 0 223.98 0 223.38-2.7 222.08-6.4 216.13-6.45 210.83-6.4 209.48-2.9 208.78 0 205.08 0 214.68-24.9 218.98-24.9ZM216.43-9.4L221.03-9.45 216.88-21.25 216.58-21.25 212.03-9.45 216.43-9.4ZM245.38-10.05Q248.43-5.4 252.13-0.9L252.13-0.9 252.08-0.4Q249.98 0.25 248.63 0.35L248.63 0.35 247.98-0.05Q244.18-5.8 242.23-9.1L242.23-9.1 237.53-9.05 237.53-7.8 237.63 0 233.93 0 234.08-7.5 233.93-24.9 242.43-24.95Q246.38-24.95 248.5-23.1 250.63-21.25 250.63-17.75L250.63-17.75Q250.63-15.2 249.25-13.2 247.88-11.2 245.38-10.05L245.38-10.05ZM237.63-21.9L237.58-12.15 242.28-12Q246.73-13.25 246.73-17.45L246.73-17.45Q246.73-19.65 245.43-20.75 244.13-21.85 241.48-21.95L241.48-21.95 237.63-21.9ZM270.42-12.95Q275.97-11.85 275.97-7.05L275.97-7.05Q275.97-3.45 273.17-1.65 270.37 0.15 264.97 0.15L264.97 0.15Q261.72 0.15 258.72 0L258.72 0 258.87-7.5 258.72-24.9 266.52-24.95Q270.27-24.95 272.35-23.38 274.42-21.8 274.42-18.9L274.42-18.9Q274.42-16.75 273.37-15.25 272.32-13.75 270.42-12.95L270.42-12.95ZM270.47-18.45Q270.47-20.3 269.27-21.15 268.07-22 265.42-22L265.42-22 262.37-22 262.32-14.3 266.77-14.15Q268.62-14.55 269.55-15.58 270.47-16.6 270.47-18.45L270.47-18.45ZM265.42-2.7Q268.67-2.7 270.4-3.83 272.12-4.95 272.12-7.15L272.12-7.15Q272.12-8.95 270.92-9.95 269.72-10.95 267.27-11.3L267.27-11.3 262.32-11.25 262.27-7.8 262.37-2.85Q263.92-2.7 265.42-2.7L265.42-2.7ZM319.77-32.05L322.92 0 319.32 0 318.57-9.75 316.87-25.7 316.52-25.7 307.62-3.7 304.32-3.7 295.87-25.7 295.47-25.7 293.77-10.05 292.92 0 289.52 0 292.87-32.05 297.42-32.05 299.07-27.15 306.02-8.9 306.32-8.9 313.62-27.45 315.27-32.05 319.77-32.05ZM339.02-3L345.67-3.2 345.97-2.9 345.62 0 330.47 0 330.62-7.5 330.47-24.9 345.72-24.9 345.97-24.6 345.67-21.7 339.37-21.9 334.17-21.85 334.12-14.3 339.07-14.25 343.42-14.4 343.67-14.05 343.37-11.1 338.77-11.25 334.12-11.2 334.07-7.8 334.12-3.05 339.02-3ZM367.76-24.9L367.96-24.6 367.71-21.45 363.06-21.8 360.56-21.8 360.41-7.8 360.56 0 356.81 0 356.96-7.5 356.86-21.8 354.36-21.8 349.61-21.45 349.31-21.8 349.61-24.9 367.76-24.9ZM394.91-24.9L394.76-7.8 394.86 0 391.16 0 391.31-7.5 391.26-10.9 377.71-10.85 377.66-7.8 377.76 0 374.06 0 374.21-7.5 374.06-24.9 377.81-24.9 377.71-14.2 384.46-14.15 391.26-14.2 391.16-24.9 394.91-24.9ZM412.81-25.2Q418.26-25.2 421.18-22 424.11-18.8 424.11-12.95L424.11-12.95Q424.11-6.6 420.98-3.13 417.86 0.35 412.06 0.35L412.06 0.35Q406.66 0.35 403.71-2.93 400.76-6.2 400.76-12.25L400.76-12.25Q400.76-18.45 403.91-21.83 407.06-25.2 412.81-25.2L412.81-25.2ZM412.46-22.05Q408.51-22.05 406.58-19.8 404.66-17.55 404.66-12.7L404.66-12.7Q404.66-7.5 406.56-5.15 408.46-2.8 412.36-2.8L412.36-2.8Q416.36-2.8 418.31-5.1 420.26-7.4 420.26-12.3L420.26-12.3Q420.26-17.35 418.33-19.7 416.41-22.05 412.46-22.05L412.46-22.05ZM440.61-25.1Q446.31-25.1 449.33-22.05 452.36-19 452.36-13.3L452.36-13.3Q452.36-6.75 449.06-3.25 445.76 0.25 439.61 0.25L439.61 0.25Q437.86 0.25 435.43 0.18 433.01 0.1 430.86 0L430.86 0 431.01-7.5 430.86-24.9 440.61-25.1ZM440.21-2.8Q444.21-2.8 446.38-5.23 448.56-7.65 448.56-12.55L448.56-12.55Q448.56-17.35 446.51-19.65 444.46-21.95 440.31-21.95L440.31-21.95Q437.86-21.95 434.56-21.75L434.56-21.75 434.46-7.8 434.51-3.1Q435.96-3 437.56-2.9 439.16-2.8 440.21-2.8L440.21-2.8ZM486.05-32.05L486.35-31.65 486.05-28.55 480.45-28.85 477.2-28.85 477.05-10 477.2 0 473.15 0 473.45-9.65 473.2-28.85 469.95-28.85 464.25-28.55 464-28.95 464.3-32.05 486.05-32.05ZM499.7-25.2Q505.15-25.2 508.07-22 511-18.8 511-12.95L511-12.95Q511-6.6 507.87-3.13 504.75 0.35 498.95 0.35L498.95 0.35Q493.55 0.35 490.6-2.93 487.65-6.2 487.65-12.25L487.65-12.25Q487.65-18.45 490.8-21.83 493.95-25.2 499.7-25.2L499.7-25.2ZM499.35-22.05Q495.4-22.05 493.47-19.8 491.55-17.55 491.55-12.7L491.55-12.7Q491.55-7.5 493.45-5.15 495.35-2.8 499.25-2.8L499.25-2.8Q503.25-2.8 505.2-5.1 507.15-7.4 507.15-12.3L507.15-12.3Q507.15-17.35 505.22-19.7 503.3-22.05 499.35-22.05L499.35-22.05ZM536.64-24.9L545.39 0 541.64 0 541.04-2.7 539.74-6.4 533.79-6.45 528.49-6.4 527.14-2.9 526.44 0 522.74 0 532.34-24.9 536.64-24.9ZM534.09-9.4L538.69-9.45 534.54-21.25 534.24-21.25 529.69-9.45 534.09-9.4ZM584.84-32.05L584.64-10 584.74 0 580.79 0 580.99-9.65 580.94-14.45 572.04-14.5 563.89-14.45 563.84-10 563.99 0 560.04 0 560.19-9.65 560.04-32.05 564.04-32.05 563.89-17.85 572.39-17.8 580.94-17.85 580.79-32.05 584.84-32.05ZM602.58-3L609.23-3.2 609.53-2.9 609.18 0 594.03 0 594.18-7.5 594.03-24.9 609.28-24.9 609.53-24.6 609.23-21.7 602.93-21.9 597.73-21.85 597.68-14.3 602.63-14.25 606.98-14.4 607.23-14.05 606.93-11.1 602.33-11.25 597.68-11.2 597.63-7.8 597.68-3.05 602.58-3ZM626.43-24.9L635.18 0 631.43 0 630.83-2.7 629.53-6.4 623.58-6.45 618.28-6.4 616.93-2.9 616.23 0 612.53 0 622.13-24.9 626.43-24.9ZM623.88-9.4L628.48-9.45 624.33-21.25 624.03-21.25 619.48-9.45 623.88-9.4ZM654.58-3.15L654.78-2.8 654.53 0 641.28 0 641.43-7.5 641.28-24.9 645.03-24.9 644.88-7.8 644.98-3.15 654.58-3.15ZM673.33-24.9L673.53-24.6 673.28-21.45 668.63-21.8 666.13-21.8 665.98-7.8 666.13 0 662.38 0 662.53-7.5 662.43-21.8 659.93-21.8 655.18-21.45 654.88-21.8 655.18-24.9 673.33-24.9ZM700.47-24.9L700.32-7.8 700.42 0 696.72 0 696.87-7.5 696.82-10.9 683.27-10.85 683.22-7.8 683.32 0 679.62 0 679.77-7.5 679.62-24.9 683.37-24.9 683.27-14.2 690.02-14.15 696.82-14.2 696.72-24.9 700.47-24.9ZM718.12-8.7L718.07-7.15 718.22 0 714.47 0 714.67-7.15 714.62-8.7 706.17-24.9 710.27-24.9 710.77-23.45 716.37-12.75 716.62-12.75 722.72-23.3 723.37-24.9 727.37-24.9 718.12-8.7ZM757.17-3.35L757.47-3 757.12 0 741.32 0 741.57-9.65 741.32-32.05 745.42-32.05 745.17-10 745.32-3.35 757.17-3.35ZM765.86-24.9L765.71-7.8 765.81 0 762.11 0 762.26-7.5 762.11-24.9 765.86-24.9ZM783.06-21.9L778.51-21.85 778.46-13.65 782.76-13.6 787.16-13.75 787.41-13.4 787.16-10.55 782.41-10.6 778.41-10.55 778.41-7.8 778.51 0 774.81 0 774.91-7.5 774.81-24.9 789.31-24.9 789.51-24.6 789.21-21.7 783.06-21.9ZM802.96-3L809.61-3.2 809.91-2.9 809.56 0 794.41 0 794.56-7.5 794.41-24.9 809.66-24.9 809.91-24.6 809.61-21.7 803.31-21.9 798.11-21.85 798.06-14.3 803.01-14.25 807.36-14.4 807.61-14.05 807.31-11.1 802.71-11.25 798.06-11.2 798.01-7.8 798.06-3.05 802.96-3ZM819.06-25.35L819.51-24.9 818.61-8.05 816.36-7.8 815.96-8.25 815.96-24.75 816.36-25.25 819.06-25.35ZM817.21-4Q818.16-4 818.68-3.45 819.21-2.9 819.21-1.95L819.21-1.95Q819.21-0.95 818.63-0.35 818.06 0.25 817.06 0.25L817.06 0.25Q816.11 0.25 815.56-0.3 815.01-0.85 815.01-1.8L815.01-1.8Q815.01-2.8 815.61-3.4 816.21-4 817.21-4L817.21-4Z" opacity="1" transform="matrix(1,0,0,1,0,0)" fill="#ffffff" class="slogan-text-1" data-fill-palette-color="secondary" id="text-1"></path></svg></g></svg></g></svg></g></svg></g></svg></g><defs></defs></svg><rect width="322.1974940913672" height="247.2" fill="none" stroke="none" visibility="hidden"></rect></g></svg></g></svg>